<svg width="390" height="751" viewBox="0 0 390 751" fill="none" xmlns="http://www.w3.org/2000/svg">
<g clip-path="url(#clip0_124_85180)">
<rect width="390" height="751" fill="url(#paint0_linear_124_85180)"/>
<g clip-path="url(#clip1_124_85180)">
<mask id="mask0_124_85180" style="mask-type:alpha" maskUnits="userSpaceOnUse" x="356" y="53" width="52" height="32">
<path fill-rule="evenodd" clip-rule="evenodd" d="M394.63 57.4561C392.286 55.0728 388.555 53.5312 384.353 53.5312C378.323 53.5312 373.263 56.7062 371.881 60.9875C370.908 60.8073 369.891 60.7118 368.845 60.7118C361.751 60.7118 356 65.1055 356 70.5254C356 75.9453 361.751 80.339 368.845 80.339C370.178 80.339 371.463 80.184 372.671 79.8963C375.171 82.7945 379.47 84.7071 384.353 84.7071C391.662 84.7071 397.661 80.422 398.281 74.9607C402.442 74.5548 405.658 71.8396 405.658 68.5507C405.658 67.7637 405.474 67.0096 405.136 66.3121C406.548 65.2299 407.42 63.7373 407.42 62.089C407.42 58.7842 403.913 56.1051 399.587 56.1051C397.706 56.1051 395.98 56.6118 394.63 57.4561Z" fill="#D9D9D9"/>
</mask>
<g mask="url(#mask0_124_85180)">
<g filter="url(#filter0_i_124_85180)">
<path fill-rule="evenodd" clip-rule="evenodd" d="M394.63 57.4561C392.286 55.0728 388.555 53.5312 384.353 53.5312C378.323 53.5312 373.263 56.7062 371.881 60.9875C370.908 60.8073 369.891 60.7118 368.845 60.7118C361.751 60.7118 356 65.1055 356 70.5254C356 75.9453 361.751 80.339 368.845 80.339C370.178 80.339 371.463 80.184 372.671 79.8963C375.171 82.7945 379.47 84.7071 384.353 84.7071C391.662 84.7071 397.661 80.422 398.281 74.9607C402.442 74.5548 405.658 71.8396 405.658 68.5507C405.658 67.7637 405.474 67.0096 405.136 66.3121C406.548 65.2299 407.42 63.7373 407.42 62.089C407.42 58.7842 403.913 56.1051 399.587 56.1051C397.706 56.1051 395.98 56.6118 394.63 57.4561Z" fill="white"/>
</g>
</g>
<g filter="url(#filter1_d_124_85180)">
<mask id="mask1_124_85180" style="mask-type:alpha" maskUnits="userSpaceOnUse" x="387" y="66" width="34" height="21">
<path fill-rule="evenodd" clip-rule="evenodd" d="M411.977 68.898C410.496 67.3968 408.138 66.4258 405.483 66.4258C401.672 66.4258 398.475 68.4256 397.602 71.1223C396.987 71.0088 396.345 70.9486 395.684 70.9486C391.201 70.9486 387.567 73.7161 387.567 77.1299C387.567 80.5437 391.201 83.3111 395.684 83.3111C396.526 83.3111 397.338 83.2135 398.101 83.0323C399.681 84.8578 402.397 86.0626 405.483 86.0626C410.101 86.0626 413.892 83.3635 414.284 79.9236C416.913 79.6679 418.945 77.9577 418.945 75.8861C418.945 75.3904 418.829 74.9154 418.616 74.4761C419.507 73.7945 420.059 72.8543 420.059 71.8161C420.059 69.7345 417.843 68.047 415.109 68.047C413.921 68.047 412.83 68.3661 411.977 68.898Z" fill="#D9D9D9"/>
</mask>
<g mask="url(#mask1_124_85180)">
<g filter="url(#filter2_i_124_85180)">
<path fill-rule="evenodd" clip-rule="evenodd" d="M411.977 68.898C410.496 67.3968 408.138 66.4258 405.483 66.4258C401.672 66.4258 398.475 68.4256 397.602 71.1223C396.987 71.0088 396.345 70.9486 395.684 70.9486C391.201 70.9486 387.567 73.7161 387.567 77.1299C387.567 80.5437 391.201 83.3111 395.684 83.3111C396.526 83.3111 397.338 83.2135 398.101 83.0323C399.681 84.8578 402.397 86.0626 405.483 86.0626C410.101 86.0626 413.892 83.3635 414.284 79.9236C416.913 79.6679 418.945 77.9577 418.945 75.8861C418.945 75.3904 418.829 74.9154 418.616 74.4761C419.507 73.7945 420.059 72.8543 420.059 71.8161C420.059 69.7345 417.843 68.047 415.109 68.047C413.921 68.047 412.83 68.3661 411.977 68.898Z" fill="white"/>
</g>
</g>
</g>
<mask id="mask2_124_85180" style="mask-type:alpha" maskUnits="userSpaceOnUse" x="-30" y="52" width="107" height="65">
<path fill-rule="evenodd" clip-rule="evenodd" d="M50.1912 60.1476C45.3263 55.2002 37.5814 52 28.8582 52C16.3394 52 5.83553 58.5908 2.96724 67.4784C0.946703 67.1044 -1.16375 66.9061 -3.33481 66.9061C-18.0616 66.9061 -30 76.0269 -30 87.278C-30 98.529 -18.0616 107.65 -3.33481 107.65C-0.56879 107.65 2.09886 107.328 4.60752 106.731C9.79779 112.747 18.7209 116.718 28.8578 116.718C44.0308 116.718 56.4843 107.822 57.771 96.4852C66.4079 95.6425 73.0839 90.0062 73.0839 83.1787C73.0839 81.545 72.7017 79.9796 72.0018 78.5317C74.9312 76.2851 76.742 73.1866 76.742 69.765C76.742 62.9046 69.4625 57.3431 60.4827 57.3431C56.5777 57.3431 52.9943 58.3948 50.1912 60.1476Z" fill="#D9D9D9"/>
</mask>
<g mask="url(#mask2_124_85180)">
<g filter="url(#filter3_i_124_85180)">
<path fill-rule="evenodd" clip-rule="evenodd" d="M50.1912 60.1476C45.3263 55.2002 37.5814 52 28.8582 52C16.3394 52 5.83553 58.5908 2.96724 67.4784C0.946703 67.1044 -1.16375 66.9061 -3.33481 66.9061C-18.0616 66.9061 -30 76.0269 -30 87.278C-30 98.529 -18.0616 107.65 -3.33481 107.65C-0.56879 107.65 2.09886 107.328 4.60752 106.731C9.79779 112.747 18.7209 116.718 28.8578 116.718C44.0308 116.718 56.4843 107.822 57.771 96.4852C66.4079 95.6425 73.0839 90.0062 73.0839 83.1787C73.0839 81.545 72.7017 79.9796 72.0018 78.5317C74.9312 76.2851 76.742 73.1866 76.742 69.765C76.742 62.9046 69.4625 57.3431 60.4827 57.3431C56.5777 57.3431 52.9943 58.3948 50.1912 60.1476Z" fill="white"/>
</g>
</g>
<g filter="url(#filter4_d_124_85180)">
<mask id="mask3_124_85180" style="mask-type:alpha" maskUnits="userSpaceOnUse" x="35" y="78" width="68" height="42">
<path fill-rule="evenodd" clip-rule="evenodd" d="M86.2013 83.8996C83.1272 80.7833 78.2333 78.7676 72.7212 78.7676C64.8107 78.7676 58.1734 82.919 56.361 88.517C55.0842 88.2814 53.7506 88.1565 52.3788 88.1565C43.0731 88.1565 35.5293 93.9014 35.5293 100.988C35.5293 108.075 43.0731 113.82 52.3788 113.82C54.1266 113.82 55.8122 113.617 57.3974 113.241C60.6771 117.03 66.3155 119.531 72.7209 119.531C82.3086 119.531 90.1778 113.928 90.9908 106.788C96.4484 106.257 100.667 102.707 100.667 98.4061C100.667 97.3772 100.425 96.3911 99.9832 95.4792C101.834 94.0641 102.979 92.1124 102.979 89.9573C102.979 85.6361 98.3786 82.1331 92.7044 82.1331C90.2369 82.1331 87.9726 82.7955 86.2013 83.8996Z" fill="#D9D9D9"/>
</mask>
<g mask="url(#mask3_124_85180)">
<g filter="url(#filter5_i_124_85180)">
<path fill-rule="evenodd" clip-rule="evenodd" d="M86.2013 83.8996C83.1272 80.7833 78.2333 78.7676 72.7212 78.7676C64.8107 78.7676 58.1734 82.919 56.361 88.517C55.0842 88.2814 53.7506 88.1565 52.3788 88.1565C43.0731 88.1565 35.5293 93.9014 35.5293 100.988C35.5293 108.075 43.0731 113.82 52.3788 113.82C54.1266 113.82 55.8122 113.617 57.3974 113.241C60.6771 117.03 66.3155 119.531 72.7209 119.531C82.3086 119.531 90.1778 113.928 90.9908 106.788C96.4484 106.257 100.667 102.707 100.667 98.4061C100.667 97.3772 100.425 96.3911 99.9832 95.4792C101.834 94.0641 102.979 92.1124 102.979 89.9573C102.979 85.6361 98.3786 82.1331 92.7044 82.1331C90.2369 82.1331 87.9726 82.7955 86.2013 83.8996Z" fill="white"/>
</g>
</g>
</g>
</g>
</g>
<defs>
<filter id="filter0_i_124_85180" x="356" y="53.5312" width="51.4199" height="31.1759" filterUnits="userSpaceOnUse" color-interpolation-filters="sRGB">
<feFlood flood-opacity="0" result="BackgroundImageFix"/>
<feBlend mode="normal" in="SourceGraphic" in2="BackgroundImageFix" result="shape"/>
<feColorMatrix in="SourceAlpha" type="matrix" values="0 0 0 0 0 0 0 0 0 0 0 0 0 0 0 0 0 0 127 0" result="hardAlpha"/>
<feOffset dx="-1.24702" dy="-3.32539"/>
<feComposite in2="hardAlpha" operator="arithmetic" k2="-1" k3="1"/>
<feColorMatrix type="matrix" values="0 0 0 0 0.559174 0 0 0 0 0.553396 0 0 0 0 0.84232 0 0 0 0.25 0"/>
<feBlend mode="normal" in2="shape" result="effect1_innerShadow_124_85180"/>
</filter>
<filter id="filter1_d_124_85180" x="358.698" y="51.9914" width="61.3605" height="48.5056" filterUnits="userSpaceOnUse" color-interpolation-filters="sRGB">
<feFlood flood-opacity="0" result="BackgroundImageFix"/>
<feColorMatrix in="SourceAlpha" type="matrix" values="0 0 0 0 0 0 0 0 0 0 0 0 0 0 0 0 0 0 127 0" result="hardAlpha"/>
<feOffset dx="-14.4344"/>
<feGaussianBlur stdDeviation="7.21719"/>
<feComposite in2="hardAlpha" operator="out"/>
<feColorMatrix type="matrix" values="0 0 0 0 0 0 0 0 0 0 0 0 0 0 0 0 0 0 0.1 0"/>
<feBlend mode="normal" in2="BackgroundImageFix" result="effect1_dropShadow_124_85180"/>
<feBlend mode="normal" in="SourceGraphic" in2="effect1_dropShadow_124_85180" result="shape"/>
</filter>
<filter id="filter2_i_124_85180" x="387.567" y="66.4258" width="32.4917" height="19.6368" filterUnits="userSpaceOnUse" color-interpolation-filters="sRGB">
<feFlood flood-opacity="0" result="BackgroundImageFix"/>
<feBlend mode="normal" in="SourceGraphic" in2="BackgroundImageFix" result="shape"/>
<feColorMatrix in="SourceAlpha" type="matrix" values="0 0 0 0 0 0 0 0 0 0 0 0 0 0 0 0 0 0 127 0" result="hardAlpha"/>
<feOffset dx="-1.24702" dy="-3.32539"/>
<feComposite in2="hardAlpha" operator="arithmetic" k2="-1" k3="1"/>
<feColorMatrix type="matrix" values="0 0 0 0 0.559174 0 0 0 0 0.553396 0 0 0 0 0.84232 0 0 0 0.25 0"/>
<feBlend mode="normal" in2="shape" result="effect1_innerShadow_124_85180"/>
</filter>
<filter id="filter3_i_124_85180" x="-30" y="52" width="106.742" height="64.7177" filterUnits="userSpaceOnUse" color-interpolation-filters="sRGB">
<feFlood flood-opacity="0" result="BackgroundImageFix"/>
<feBlend mode="normal" in="SourceGraphic" in2="BackgroundImageFix" result="shape"/>
<feColorMatrix in="SourceAlpha" type="matrix" values="0 0 0 0 0 0 0 0 0 0 0 0 0 0 0 0 0 0 127 0" result="hardAlpha"/>
<feOffset dx="-1.24702" dy="-3.32539"/>
<feComposite in2="hardAlpha" operator="arithmetic" k2="-1" k3="1"/>
<feColorMatrix type="matrix" values="0 0 0 0 0.559174 0 0 0 0 0.553396 0 0 0 0 0.84232 0 0 0 0.25 0"/>
<feBlend mode="normal" in2="shape" result="effect1_innerShadow_124_85180"/>
</filter>
<filter id="filter4_d_124_85180" x="6.66052" y="64.3332" width="96.318" height="69.6325" filterUnits="userSpaceOnUse" color-interpolation-filters="sRGB">
<feFlood flood-opacity="0" result="BackgroundImageFix"/>
<feColorMatrix in="SourceAlpha" type="matrix" values="0 0 0 0 0 0 0 0 0 0 0 0 0 0 0 0 0 0 127 0" result="hardAlpha"/>
<feOffset dx="-14.4344"/>
<feGaussianBlur stdDeviation="7.21719"/>
<feComposite in2="hardAlpha" operator="out"/>
<feColorMatrix type="matrix" values="0 0 0 0 0 0 0 0 0 0 0 0 0 0 0 0 0 0 0.1 0"/>
<feBlend mode="normal" in2="BackgroundImageFix" result="effect1_dropShadow_124_85180"/>
<feBlend mode="normal" in="SourceGraphic" in2="effect1_dropShadow_124_85180" result="shape"/>
</filter>
<filter id="filter5_i_124_85180" x="35.5293" y="78.7676" width="67.4492" height="40.7637" filterUnits="userSpaceOnUse" color-interpolation-filters="sRGB">
<feFlood flood-opacity="0" result="BackgroundImageFix"/>
<feBlend mode="normal" in="SourceGraphic" in2="BackgroundImageFix" result="shape"/>
<feColorMatrix in="SourceAlpha" type="matrix" values="0 0 0 0 0 0 0 0 0 0 0 0 0 0 0 0 0 0 127 0" result="hardAlpha"/>
<feOffset dx="-1.24702" dy="-3.32539"/>
<feComposite in2="hardAlpha" operator="arithmetic" k2="-1" k3="1"/>
<feColorMatrix type="matrix" values="0 0 0 0 0.559174 0 0 0 0 0.553396 0 0 0 0 0.84232 0 0 0 0.25 0"/>
<feBlend mode="normal" in2="shape" result="effect1_innerShadow_124_85180"/>
</filter>
<linearGradient id="paint0_linear_124_85180" x1="8" y1="3.64953e-06" x2="615.271" y2="409.604" gradientUnits="userSpaceOnUse">
<stop stop-color="#CBE9FB"/>
<stop offset="1" stop-color="#51C2FF"/>
</linearGradient>
<clipPath id="clip0_124_85180">
<rect width="390" height="751" fill="white"/>
</clipPath>
<clipPath id="clip1_124_85180">
<rect width="450" height="70" fill="white" transform="translate(-30 52)"/>
</clipPath>
</defs>
</svg>
