<svg width="390" height="751" viewBox="0 0 390 751" fill="none" xmlns="http://www.w3.org/2000/svg">
<g clip-path="url(#clip0_124_82463)">
<rect width="390" height="751" fill="url(#paint0_linear_124_82463)"/>
<g clip-path="url(#clip1_124_82463)">
<path d="M61.8928 134.663C62.1227 135.21 62.2616 135.291 62.85 135.216C62.8781 135.212 62.8887 135.252 62.8626 135.263C62.3157 135.492 62.2347 135.631 62.31 136.22C62.3136 136.248 62.2738 136.259 62.263 136.232C62.0331 135.685 61.8941 135.604 61.3058 135.68C61.2777 135.683 61.267 135.644 61.2932 135.633C61.8401 135.403 61.9211 135.264 61.8458 134.676C61.8422 134.647 61.8819 134.637 61.8928 134.663Z" fill="white"/>
<path d="M67.2377 69.6763C66.8778 70.149 66.8778 70.309 67.2377 70.7817C67.2553 70.804 67.2259 70.8334 67.2036 70.8158C66.7309 70.456 66.5709 70.456 66.0982 70.8158C66.0759 70.8334 66.0465 70.804 66.0641 70.7817C66.4239 70.309 66.4239 70.149 66.0641 69.6763C66.0465 69.654 66.0759 69.6246 66.0982 69.6422C66.5709 70.0021 66.7309 70.0021 67.2036 69.6422C67.2259 69.6246 67.2553 69.654 67.2377 69.6763Z" fill="white"/>
<path d="M22.477 112.886C22.4018 113.476 22.4817 113.614 23.0297 113.844C23.0561 113.854 23.0454 113.894 23.0172 113.89C22.4279 113.815 22.2894 113.895 22.0599 114.443C22.0494 114.469 22.0093 114.459 22.0134 114.43C22.0886 113.841 22.0087 113.703 21.4607 113.473C21.4342 113.463 21.445 113.423 21.4732 113.427C22.0625 113.502 22.201 113.422 22.4304 112.874C22.441 112.847 22.4811 112.858 22.477 112.886Z" fill="white"/>
<path d="M348.828 252.228C349.058 252.775 349.196 252.856 349.785 252.781C349.813 252.777 349.824 252.817 349.797 252.828C349.25 253.057 349.169 253.196 349.245 253.785C349.248 253.813 349.209 253.823 349.198 253.797C348.968 253.25 348.829 253.169 348.241 253.245C348.213 253.248 348.202 253.209 348.228 253.198C348.775 252.968 348.856 252.829 348.781 252.241C348.777 252.212 348.817 252.202 348.828 252.228Z" fill="white"/>
<path d="M337.756 320.617C337.396 321.089 337.396 321.249 337.756 321.722C337.774 321.744 337.744 321.774 337.722 321.756C337.249 321.396 337.089 321.396 336.617 321.756C336.594 321.774 336.565 321.744 336.583 321.722C336.942 321.249 336.942 321.089 336.583 320.617C336.565 320.594 336.594 320.565 336.617 320.583C337.089 320.942 337.249 320.942 337.722 320.583C337.744 320.565 337.774 320.594 337.756 320.617Z" fill="white"/>
<path d="M367.245 280.886C367.169 281.476 367.249 281.614 367.797 281.844C367.824 281.854 367.813 281.894 367.785 281.89C367.195 281.815 367.057 281.895 366.828 282.443C366.817 282.469 366.777 282.459 366.781 282.43C366.856 281.841 366.776 281.703 366.228 281.473C366.202 281.463 366.213 281.423 366.241 281.427C366.83 281.502 366.969 281.422 367.198 280.874C367.209 280.847 367.249 280.858 367.245 280.886Z" fill="white"/>
<g clip-path="url(#clip2_124_82463)">
<path d="M124.185 318.206C124.185 317.726 124.575 317.346 125.045 317.346C125.515 317.346 125.905 317.736 125.905 318.206C125.905 318.676 125.515 319.066 125.045 319.066C124.575 319.066 124.185 318.676 124.185 318.206Z" fill="#143664"/>
<path d="M35.4053 304.686C35.4053 303.376 36.4653 302.316 37.7753 302.316C39.0853 302.316 40.1453 303.376 40.1453 304.686C40.1453 305.996 39.0853 307.056 37.7753 307.056C36.4653 307.056 35.4053 305.996 35.4053 304.686Z" fill="#143664"/>
<path d="M-2.13477 241.707C-2.13477 240.867 -1.45478 240.187 -0.614777 240.187C0.225223 240.187 0.905228 240.867 0.905228 241.707C0.905228 242.547 0.225223 243.227 -0.614777 243.227C-1.45478 243.227 -2.13477 242.547 -2.13477 241.707Z" fill="#143664"/>
<path d="M98.0549 368.986C98.7839 368.986 99.3749 368.395 99.3749 367.666C99.3749 366.937 98.7839 366.346 98.0549 366.346C97.3259 366.346 96.7349 366.937 96.7349 367.666C96.7349 368.395 97.3259 368.986 98.0549 368.986Z" fill="#143664"/>
<path d="M23.3351 359.666C24.3551 358.646 24.3551 356.986 23.3351 355.966C22.3151 354.946 20.6551 354.946 19.6351 355.966C18.6151 356.986 18.6151 358.646 19.6351 359.666C20.6551 360.686 22.3151 360.686 23.3351 359.666Z" fill="#EAF2FD"/>
</g>
<path d="M359.275 481.676C360.004 481.676 360.595 481.085 360.595 480.356C360.595 479.627 360.004 479.036 359.275 479.036C358.546 479.036 357.955 479.627 357.955 480.356C357.955 481.085 358.546 481.676 359.275 481.676Z" fill="#143664"/>
<path d="M301.965 513.137C301.965 511.927 302.945 510.937 304.165 510.937C305.385 510.937 306.365 511.917 306.365 513.137C306.365 514.357 305.385 515.337 304.165 515.337C302.945 515.337 301.965 514.357 301.965 513.137Z" fill="#143664"/>
<path d="M248.155 427.296C248.155 425.846 249.325 424.676 250.775 424.676C252.225 424.676 253.395 425.846 253.395 427.296C253.395 428.746 252.225 429.916 250.775 429.916C249.325 429.916 248.155 428.746 248.155 427.296Z" fill="#EAF2FD"/>
<path d="M289.405 502.366C289.405 501.706 289.935 501.176 290.595 501.176C291.255 501.176 291.785 501.706 291.785 502.366C291.785 503.026 291.255 503.556 290.595 503.556C289.935 503.556 289.405 503.026 289.405 502.366Z" fill="#143664"/>
<path d="M288.665 466.636C289.167 466.636 289.575 466.229 289.575 465.726C289.575 465.224 289.167 464.816 288.665 464.816C288.162 464.816 287.755 465.224 287.755 465.726C287.755 466.229 288.162 466.636 288.665 466.636Z" fill="#143664"/>
<path d="M344.155 440.467C344.155 439.777 344.715 439.207 345.415 439.207C346.115 439.207 346.675 439.767 346.675 440.467C346.675 441.167 346.115 441.727 345.415 441.727C344.715 441.727 344.155 441.167 344.155 440.467Z" fill="#143664"/>
<path d="M282.365 85.4067C282.365 84.5667 283.045 83.8867 283.885 83.8867C284.725 83.8867 285.405 84.5667 285.405 85.4067C285.405 86.2467 284.725 86.9267 283.885 86.9267C283.045 86.9267 282.365 86.2467 282.365 85.4067Z" fill="#EAF2FD"/>
<path d="M286.405 65.9468C286.405 64.7168 287.405 63.7168 288.635 63.7168C289.865 63.7168 290.865 64.7168 290.865 65.9468C290.865 67.1768 289.865 68.1768 288.635 68.1768C287.405 68.1768 286.405 67.1768 286.405 65.9468Z" fill="#143664"/>
<path d="M263.685 76.3966C263.685 75.6166 264.315 74.9766 265.105 74.9766C265.895 74.9766 266.525 75.6166 266.525 76.3966C266.525 77.1766 265.895 77.8166 265.105 77.8166C264.315 77.8166 263.685 77.1766 263.685 76.3966Z" fill="#143664"/>
<path d="M272.565 37.3868C272.565 36.6068 273.195 35.9668 273.985 35.9668C274.775 35.9668 275.405 36.5968 275.405 37.3868C275.405 38.1768 274.775 38.8068 273.985 38.8068C273.195 38.8068 272.565 38.1668 272.565 37.3868Z" fill="#143664"/>
<path d="M252.805 69.9364C252.805 69.4764 253.175 69.1064 253.635 69.1064C254.095 69.1064 254.465 69.4764 254.465 69.9364C254.465 70.3964 254.095 70.7664 253.635 70.7664C253.175 70.7664 252.805 70.3964 252.805 69.9364Z" fill="#EAF2FD"/>
<path d="M358.545 121.616C358.545 120.316 359.605 119.256 360.905 119.256C362.205 119.256 363.265 120.316 363.265 121.616C363.265 122.916 362.205 123.976 360.905 123.976C359.605 123.976 358.545 122.916 358.545 121.616Z" fill="#EAF2FD"/>
<path d="M347.255 120.426C347.255 119.766 347.785 119.236 348.445 119.236C349.105 119.236 349.635 119.766 349.635 120.426C349.635 121.086 349.105 121.616 348.445 121.616C347.785 121.616 347.255 121.086 347.255 120.426Z" fill="#EAF2FD"/>
</g>
</g>
<defs>
<linearGradient id="paint0_linear_124_82463" x1="195" y1="0" x2="195" y2="751" gradientUnits="userSpaceOnUse">
<stop stop-color="#055175"/>
<stop offset="0.485" stop-color="#3FA0B5"/>
<stop offset="1" stop-color="#356E4E"/>
</linearGradient>
<clipPath id="clip0_124_82463">
<rect width="390" height="751" fill="white"/>
</clipPath>
<clipPath id="clip1_124_82463">
<rect width="390" height="751" fill="white"/>
</clipPath>
<clipPath id="clip2_124_82463">
<rect width="149" height="149" fill="white" transform="translate(-2 230)"/>
</clipPath>
</defs>
</svg>
